<svg width="20" height="20" viewBox="0 0 20 20" fill="none" xmlns="http://www.w3.org/2000/svg">
  <path fill-rule="evenodd" clip-rule="evenodd"
    d="M4 6.5C4 5.11929 5.11929 4 6.5 4C7.88071 4 9 5.11929 9 6.5C9 7.88071 7.88071 9 6.5 9C5.11929 9 4 7.88071 4 6.5ZM6.5 6C6.22386 6 6 6.22386 6 6.5C6 6.77614 6.22386 7 6.5 7C6.77614 7 7 6.77614 7 6.5C7 6.22386 6.77614 6 6.5 6Z"
    fill="#2D3648" />
  <path fill-rule="evenodd" clip-rule="evenodd"
    d="M0 3C0 1.34315 1.34315 0 3 0H17C18.6569 0 20 1.34315 20 3V17C20 18.6569 18.6569 20 17 20H3C1.34315 20 0 18.6569 0 17V3ZM3 2C2.44772 2 2 2.44772 2 3V17C2 17.4288 2.26993 17.7946 2.64914 17.9367L13.293 7.29289C13.6835 6.90237 14.3167 6.90237 14.7072 7.29289L18 10.5857V3C18 2.44772 17.5523 2 17 2H3ZM18 13.4141L14.0001 9.41421L5.41429 18H17C17.5523 18 18 17.5523 18 17V13.4141Z"
    fill="#2D3648" />
</svg>